<svg id="visual" viewBox="0 0 1920 2600" width="1920" height="2600" xmlns="http://www.w3.org/2000/svg" xmlns:xlink="http://www.w3.org/1999/xlink" version="1.1"><g stroke-width="1" stroke-linejoin="bevel"><path d="M880.3 1402L622 1420L822.3 1603Z" fill="#00101c" stroke="#00101c"></path><path d="M622 1420L648 1602L822.3 1603Z" fill="#112e42" stroke="#112e42"></path><path d="M880.3 1402L606 1236L622 1420Z" fill="#277297" stroke="#277297"></path><path d="M880.3 1402L837.3 1176L606 1236Z" fill="#0c2435" stroke="#0c2435"></path><path d="M443.7 1784L619 1770L648 1602Z" fill="#1d4e6b" stroke="#1d4e6b"></path><path d="M648 1602L619 1770L822.3 1603Z" fill="#205a7a" stroke="#205a7a"></path><path d="M387.7 1613L648 1602L622 1420Z" fill="#15384f" stroke="#15384f"></path><path d="M885.3 1811L1083.7 1583L822.3 1603Z" fill="#15384f" stroke="#15384f"></path><path d="M822.3 1603L1083.7 1583L880.3 1402Z" fill="#246688" stroke="#246688"></path><path d="M880.3 1402L1091.7 1164L837.3 1176Z" fill="#1d4e6b" stroke="#1d4e6b"></path><path d="M1083.7 1583L1101.7 1434L880.3 1402Z" fill="#081a28" stroke="#081a28"></path><path d="M461.7 1232L406.7 1409L622 1420Z" fill="#19435d" stroke="#19435d"></path><path d="M619 1770L885.3 1811L822.3 1603Z" fill="#081a28" stroke="#081a28"></path><path d="M436.7 985L461.7 1232L606 1236Z" fill="#246688" stroke="#246688"></path><path d="M606 1236L461.7 1232L622 1420Z" fill="#081a28" stroke="#081a28"></path><path d="M406.7 1409L387.7 1613L622 1420Z" fill="#246688" stroke="#246688"></path><path d="M387.7 1613L443.7 1784L648 1602Z" fill="#0c2435" stroke="#0c2435"></path><path d="M619 1770L675 1969L885.3 1811Z" fill="#246688" stroke="#246688"></path><path d="M1101.7 1434L1091.7 1164L880.3 1402Z" fill="#297ea6" stroke="#297ea6"></path><path d="M1039.7 1974L1089.7 1830L885.3 1811Z" fill="#112e42" stroke="#112e42"></path><path d="M885.3 1811L1089.7 1830L1083.7 1583Z" fill="#297ea6" stroke="#297ea6"></path><path d="M1308 1564L1275 1362L1101.7 1434Z" fill="#277297" stroke="#277297"></path><path d="M1067.7 998L845.3 995L837.3 1176Z" fill="#19435d" stroke="#19435d"></path><path d="M837.3 1176L640 980L606 1236Z" fill="#081a28" stroke="#081a28"></path><path d="M447.7 1981L675 1969L619 1770Z" fill="#112e42" stroke="#112e42"></path><path d="M845.3 995L640 980L837.3 1176Z" fill="#246688" stroke="#246688"></path><path d="M193.3 1206L245.3 1425L406.7 1409Z" fill="#0c2435" stroke="#0c2435"></path><path d="M406.7 1409L245.3 1425L387.7 1613Z" fill="#1d4e6b" stroke="#1d4e6b"></path><path d="M387.7 1613L215.3 1784L443.7 1784Z" fill="#00101c" stroke="#00101c"></path><path d="M193.3 1206L406.7 1409L461.7 1232Z" fill="#081a28" stroke="#081a28"></path><path d="M675 1969L877.3 1977L885.3 1811Z" fill="#081a28" stroke="#081a28"></path><path d="M1308 1564L1101.7 1434L1083.7 1583Z" fill="#246688" stroke="#246688"></path><path d="M1101.7 1434L1275 1362L1091.7 1164Z" fill="#277297" stroke="#277297"></path><path d="M1268 1775L1308 1564L1083.7 1583Z" fill="#19435d" stroke="#19435d"></path><path d="M1253 1026L1067.7 998L1091.7 1164Z" fill="#081a28" stroke="#081a28"></path><path d="M1091.7 1164L1067.7 998L837.3 1176Z" fill="#112e42" stroke="#112e42"></path><path d="M845.3 995L632 837L640 980Z" fill="#205a7a" stroke="#205a7a"></path><path d="M877.3 1977L1039.7 1974L885.3 1811Z" fill="#112e42" stroke="#112e42"></path><path d="M1089.7 1830L1268 1775L1083.7 1583Z" fill="#1d4e6b" stroke="#1d4e6b"></path><path d="M245.3 1425L196.3 1639L387.7 1613Z" fill="#297ea6" stroke="#297ea6"></path><path d="M443.7 1784L447.7 1981L619 1770Z" fill="#0c2435" stroke="#0c2435"></path><path d="M640 980L436.7 985L606 1236Z" fill="#297ea6" stroke="#297ea6"></path><path d="M215.3 1784L447.7 1981L443.7 1784Z" fill="#246688" stroke="#246688"></path><path d="M675 1969L862.3 2231L877.3 1977Z" fill="#112e42" stroke="#112e42"></path><path d="M1254 2005L1268 1775L1089.7 1830Z" fill="#19435d" stroke="#19435d"></path><path d="M196.3 1639L215.3 1784L387.7 1613Z" fill="#112e42" stroke="#112e42"></path><path d="M436.7 985L193.3 1206L461.7 1232Z" fill="#205a7a" stroke="#205a7a"></path><path d="M245.3 1425L0 1394L196.3 1639Z" fill="#297ea6" stroke="#297ea6"></path><path d="M1275 1362L1314 1193L1091.7 1164Z" fill="#246688" stroke="#246688"></path><path d="M1472.3 1191L1314 1193L1275 1362Z" fill="#15384f" stroke="#15384f"></path><path d="M887.3 797L632 837L845.3 995Z" fill="#19435d" stroke="#19435d"></path><path d="M640 980L459.7 829L436.7 985Z" fill="#15384f" stroke="#15384f"></path><path d="M1314 1193L1253 1026L1091.7 1164Z" fill="#277297" stroke="#277297"></path><path d="M1067.7 998L887.3 797L845.3 995Z" fill="#0c2435" stroke="#0c2435"></path><path d="M1083.7 828L887.3 797L1067.7 998Z" fill="#205a7a" stroke="#205a7a"></path><path d="M677 604L459.7 829L632 837Z" fill="#19435d" stroke="#19435d"></path><path d="M632 837L459.7 829L640 980Z" fill="#246688" stroke="#246688"></path><path d="M436.7 985L194.3 986L193.3 1206Z" fill="#081a28" stroke="#081a28"></path><path d="M1253 1026L1083.7 828L1067.7 998Z" fill="#297ea6" stroke="#297ea6"></path><path d="M1065.7 2187L1254 2005L1039.7 1974Z" fill="#277297" stroke="#277297"></path><path d="M1039.7 1974L1254 2005L1089.7 1830Z" fill="#277297" stroke="#277297"></path><path d="M1455.3 1802L1499.3 1605L1308 1564Z" fill="#1d4e6b" stroke="#1d4e6b"></path><path d="M1065.7 2187L1039.7 1974L877.3 1977Z" fill="#00101c" stroke="#00101c"></path><path d="M179.3 839L194.3 986L436.7 985Z" fill="#0c2435" stroke="#0c2435"></path><path d="M215.3 1784L198.3 1982L447.7 1981Z" fill="#205a7a" stroke="#205a7a"></path><path d="M605 2239L862.3 2231L675 1969Z" fill="#19435d" stroke="#19435d"></path><path d="M0 1833L198.3 1982L215.3 1784Z" fill="#19435d" stroke="#19435d"></path><path d="M0 1635L215.3 1784L196.3 1639Z" fill="#112e42" stroke="#112e42"></path><path d="M1455.3 1802L1308 1564L1268 1775Z" fill="#246688" stroke="#246688"></path><path d="M1308 1564L1524.3 1390L1275 1362Z" fill="#15384f" stroke="#15384f"></path><path d="M1314 1193L1472.3 1191L1253 1026Z" fill="#19435d" stroke="#19435d"></path><path d="M0 1189L0 1394L193.3 1206Z" fill="#277297" stroke="#277297"></path><path d="M193.3 1206L0 1394L245.3 1425Z" fill="#112e42" stroke="#112e42"></path><path d="M605 2239L675 1969L447.7 1981Z" fill="#1d4e6b" stroke="#1d4e6b"></path><path d="M1524.3 1390L1472.3 1191L1275 1362Z" fill="#15384f" stroke="#15384f"></path><path d="M1253 1026L1279 770L1083.7 828Z" fill="#277297" stroke="#277297"></path><path d="M0 1394L0 1635L196.3 1639Z" fill="#205a7a" stroke="#205a7a"></path><path d="M1254 2005L1455.3 1802L1268 1775Z" fill="#246688" stroke="#246688"></path><path d="M1499.3 1605L1524.3 1390L1308 1564Z" fill="#15384f" stroke="#15384f"></path><path d="M862.3 2231L1065.7 2187L877.3 1977Z" fill="#112e42" stroke="#112e42"></path><path d="M420.7 2225L605 2239L447.7 1981Z" fill="#0c2435" stroke="#0c2435"></path><path d="M194.3 986L0 1189L193.3 1206Z" fill="#112e42" stroke="#112e42"></path><path d="M202.3 2202L420.7 2225L447.7 1981Z" fill="#15384f" stroke="#15384f"></path><path d="M0 1635L0 1833L215.3 1784Z" fill="#205a7a" stroke="#205a7a"></path><path d="M198.3 1982L202.3 2202L447.7 1981Z" fill="#112e42" stroke="#112e42"></path><path d="M459.7 829L179.3 839L436.7 985Z" fill="#081a28" stroke="#081a28"></path><path d="M194.3 986L0 990L0 1189Z" fill="#0c2435" stroke="#0c2435"></path><path d="M235.3 634L179.3 839L459.7 829Z" fill="#0c2435" stroke="#0c2435"></path><path d="M877.3 584L677 604L887.3 797Z" fill="#246688" stroke="#246688"></path><path d="M887.3 797L677 604L632 837Z" fill="#1d4e6b" stroke="#1d4e6b"></path><path d="M1477.3 807L1279 770L1253 1026Z" fill="#297ea6" stroke="#297ea6"></path><path d="M1089.7 563L877.3 584L887.3 797Z" fill="#0c2435" stroke="#0c2435"></path><path d="M1065.7 2187L1261 2202L1254 2005Z" fill="#15384f" stroke="#15384f"></path><path d="M1254 2005L1517.3 2028L1455.3 1802Z" fill="#0c2435" stroke="#0c2435"></path><path d="M1251 2360L1261 2202L1065.7 2187Z" fill="#081a28" stroke="#081a28"></path><path d="M446.7 2436L658 2367L605 2239Z" fill="#205a7a" stroke="#205a7a"></path><path d="M605 2239L658 2367L862.3 2231Z" fill="#00101c" stroke="#00101c"></path><path d="M862.3 2231L1081.7 2409L1065.7 2187Z" fill="#277297" stroke="#277297"></path><path d="M179.3 839L0 990L194.3 986Z" fill="#19435d" stroke="#19435d"></path><path d="M1089.7 563L887.3 797L1083.7 828Z" fill="#0c2435" stroke="#0c2435"></path><path d="M1472.3 1191L1529.3 1010L1253 1026Z" fill="#112e42" stroke="#112e42"></path><path d="M1680.7 1198L1529.3 1010L1472.3 1191Z" fill="#277297" stroke="#277297"></path><path d="M658 2367L851.3 2377L862.3 2231Z" fill="#277297" stroke="#277297"></path><path d="M0 2039L202.3 2202L198.3 1982Z" fill="#19435d" stroke="#19435d"></path><path d="M420.7 2225L446.7 2436L605 2239Z" fill="#277297" stroke="#277297"></path><path d="M1495.3 2170L1517.3 2028L1254 2005Z" fill="#0c2435" stroke="#0c2435"></path><path d="M1680.7 1799L1707.7 1614L1499.3 1605Z" fill="#19435d" stroke="#19435d"></path><path d="M1499.3 1605L1707.7 1614L1524.3 1390Z" fill="#081a28" stroke="#081a28"></path><path d="M1524.3 1390L1680.7 1198L1472.3 1191Z" fill="#15384f" stroke="#15384f"></path><path d="M0 1833L0 2039L198.3 1982Z" fill="#00101c" stroke="#00101c"></path><path d="M602 381L451.7 568L677 604Z" fill="#19435d" stroke="#19435d"></path><path d="M677 604L451.7 568L459.7 829Z" fill="#081a28" stroke="#081a28"></path><path d="M179.3 839L0 837L0 990Z" fill="#297ea6" stroke="#297ea6"></path><path d="M1680.7 1799L1499.3 1605L1455.3 1802Z" fill="#112e42" stroke="#112e42"></path><path d="M1721.7 1365L1680.7 1198L1524.3 1390Z" fill="#297ea6" stroke="#297ea6"></path><path d="M1279 770L1089.7 563L1083.7 828Z" fill="#00101c" stroke="#00101c"></path><path d="M877.3 584L861.3 380L677 604Z" fill="#246688" stroke="#246688"></path><path d="M1289 614L1089.7 563L1279 770Z" fill="#1d4e6b" stroke="#1d4e6b"></path><path d="M1707.7 1614L1721.7 1365L1524.3 1390Z" fill="#15384f" stroke="#15384f"></path><path d="M1517.3 2028L1680.7 1799L1455.3 1802Z" fill="#19435d" stroke="#19435d"></path><path d="M1727.7 838L1477.3 807L1529.3 1010Z" fill="#277297" stroke="#277297"></path><path d="M1529.3 1010L1477.3 807L1253 1026Z" fill="#1d4e6b" stroke="#1d4e6b"></path><path d="M451.7 568L235.3 634L459.7 829Z" fill="#15384f" stroke="#15384f"></path><path d="M0 584L0 837L179.3 839Z" fill="#1d4e6b" stroke="#1d4e6b"></path><path d="M1027.7 2600L1081.7 2409L851.3 2377Z" fill="#112e42" stroke="#112e42"></path><path d="M851.3 2377L1081.7 2409L862.3 2231Z" fill="#246688" stroke="#246688"></path><path d="M1261 2202L1495.3 2170L1254 2005Z" fill="#1d4e6b" stroke="#1d4e6b"></path><path d="M215.3 2439L446.7 2436L420.7 2225Z" fill="#1d4e6b" stroke="#1d4e6b"></path><path d="M658 2367L814.3 2600L851.3 2377Z" fill="#081a28" stroke="#081a28"></path><path d="M215.3 2439L420.7 2225L202.3 2202Z" fill="#15384f" stroke="#15384f"></path><path d="M1458.3 628L1289 614L1279 770Z" fill="#0c2435" stroke="#0c2435"></path><path d="M1081.7 2409L1251 2360L1065.7 2187Z" fill="#00101c" stroke="#00101c"></path><path d="M1251 2360L1495.3 2170L1261 2202Z" fill="#00101c" stroke="#00101c"></path><path d="M1517.3 2028L1744.7 1975L1680.7 1799Z" fill="#297ea6" stroke="#297ea6"></path><path d="M1680.7 1198L1678.7 1002L1529.3 1010Z" fill="#00101c" stroke="#00101c"></path><path d="M1477.3 807L1458.3 628L1279 770Z" fill="#277297" stroke="#277297"></path><path d="M1727.7 838L1678.7 1002L1920 1025Z" fill="#1d4e6b" stroke="#1d4e6b"></path><path d="M0 2039L0 2206L202.3 2202Z" fill="#081a28" stroke="#081a28"></path><path d="M1037.7 385L877.3 584L1089.7 563Z" fill="#19435d" stroke="#19435d"></path><path d="M1037.7 385L861.3 380L877.3 584Z" fill="#15384f" stroke="#15384f"></path><path d="M451.7 568L186.3 425L235.3 634Z" fill="#19435d" stroke="#19435d"></path><path d="M1727.7 838L1458.3 628L1477.3 807Z" fill="#15384f" stroke="#15384f"></path><path d="M1259 398L1037.7 385L1089.7 563Z" fill="#0c2435" stroke="#0c2435"></path><path d="M861.3 380L602 381L677 604Z" fill="#0c2435" stroke="#0c2435"></path><path d="M0 2376L215.3 2439L202.3 2202Z" fill="#246688" stroke="#246688"></path><path d="M1710.7 2170L1744.7 1975L1517.3 2028Z" fill="#1d4e6b" stroke="#1d4e6b"></path><path d="M1920 1581L1920 1438L1707.7 1614Z" fill="#081a28" stroke="#081a28"></path><path d="M1707.7 1614L1920 1438L1721.7 1365Z" fill="#297ea6" stroke="#297ea6"></path><path d="M1259 398L1089.7 563L1289 614Z" fill="#00101c" stroke="#00101c"></path><path d="M657 2600L814.3 2600L658 2367Z" fill="#081a28" stroke="#081a28"></path><path d="M1081.7 2409L1262 2600L1251 2360Z" fill="#00101c" stroke="#00101c"></path><path d="M657 2600L658 2367L446.7 2436Z" fill="#081a28" stroke="#081a28"></path><path d="M458.7 2600L657 2600L446.7 2436Z" fill="#1d4e6b" stroke="#1d4e6b"></path><path d="M814.3 2600L1027.7 2600L851.3 2377Z" fill="#297ea6" stroke="#297ea6"></path><path d="M1671.7 2393L1710.7 2170L1495.3 2170Z" fill="#1d4e6b" stroke="#1d4e6b"></path><path d="M1495.3 2170L1710.7 2170L1517.3 2028Z" fill="#19435d" stroke="#19435d"></path><path d="M1678.7 1002L1727.7 838L1529.3 1010Z" fill="#246688" stroke="#246688"></path><path d="M1920 1025L1678.7 1002L1680.7 1198Z" fill="#15384f" stroke="#15384f"></path><path d="M1920 1217L1680.7 1198L1721.7 1365Z" fill="#00101c" stroke="#00101c"></path><path d="M215.3 2439L458.7 2600L446.7 2436Z" fill="#246688" stroke="#246688"></path><path d="M1920 1581L1707.7 1614L1920 1771Z" fill="#15384f" stroke="#15384f"></path><path d="M186.3 425L0 584L235.3 634Z" fill="#081a28" stroke="#081a28"></path><path d="M235.3 634L0 584L179.3 839Z" fill="#19435d" stroke="#19435d"></path><path d="M609 178L403.7 360L602 381Z" fill="#1d4e6b" stroke="#1d4e6b"></path><path d="M602 381L403.7 360L451.7 568Z" fill="#00101c" stroke="#00101c"></path><path d="M609 178L602 381L861.3 380Z" fill="#1d4e6b" stroke="#1d4e6b"></path><path d="M1920 1771L1707.7 1614L1680.7 1799Z" fill="#1d4e6b" stroke="#1d4e6b"></path><path d="M0 2206L0 2376L202.3 2202Z" fill="#15384f" stroke="#15384f"></path><path d="M215.3 2439L181.3 2600L458.7 2600Z" fill="#277297" stroke="#277297"></path><path d="M1518.3 2407L1495.3 2170L1251 2360Z" fill="#0c2435" stroke="#0c2435"></path><path d="M1744.7 1975L1920 1771L1680.7 1799Z" fill="#1d4e6b" stroke="#1d4e6b"></path><path d="M1509.3 414L1259 398L1289 614Z" fill="#112e42" stroke="#112e42"></path><path d="M1509.3 414L1289 614L1458.3 628Z" fill="#15384f" stroke="#15384f"></path><path d="M1920 1438L1920 1217L1721.7 1365Z" fill="#205a7a" stroke="#205a7a"></path><path d="M403.7 360L186.3 425L451.7 568Z" fill="#081a28" stroke="#081a28"></path><path d="M1920 2002L1920 1771L1744.7 1975Z" fill="#15384f" stroke="#15384f"></path><path d="M1262 2600L1518.3 2407L1251 2360Z" fill="#081a28" stroke="#081a28"></path><path d="M1027.7 2600L1262 2600L1081.7 2409Z" fill="#277297" stroke="#277297"></path><path d="M1920 1217L1920 1025L1680.7 1198Z" fill="#277297" stroke="#277297"></path><path d="M0 2600L181.3 2600L215.3 2439Z" fill="#081a28" stroke="#081a28"></path><path d="M1710.7 2170L1920 2002L1744.7 1975Z" fill="#00101c" stroke="#00101c"></path><path d="M1920 2192L1920 2002L1710.7 2170Z" fill="#19435d" stroke="#19435d"></path><path d="M1703.7 2600L1671.7 2393L1518.3 2407Z" fill="#19435d" stroke="#19435d"></path><path d="M1518.3 2407L1671.7 2393L1495.3 2170Z" fill="#246688" stroke="#246688"></path><path d="M1068.7 183L866.3 181L1037.7 385Z" fill="#112e42" stroke="#112e42"></path><path d="M1037.7 385L866.3 181L861.3 380Z" fill="#205a7a" stroke="#205a7a"></path><path d="M0 211L0 378L186.3 425Z" fill="#0c2435" stroke="#0c2435"></path><path d="M1730.7 566L1458.3 628L1727.7 838Z" fill="#1d4e6b" stroke="#1d4e6b"></path><path d="M1730.7 566L1509.3 414L1458.3 628Z" fill="#1d4e6b" stroke="#1d4e6b"></path><path d="M1259 398L1068.7 183L1037.7 385Z" fill="#246688" stroke="#246688"></path><path d="M866.3 181L609 178L861.3 380Z" fill="#246688" stroke="#246688"></path><path d="M1302 204L1068.7 183L1259 398Z" fill="#277297" stroke="#277297"></path><path d="M866.3 181L829.3 0L609 178Z" fill="#246688" stroke="#246688"></path><path d="M247.3 198L186.3 425L403.7 360Z" fill="#15384f" stroke="#15384f"></path><path d="M186.3 425L0 378L0 584Z" fill="#0c2435" stroke="#0c2435"></path><path d="M1920 802L1730.7 566L1727.7 838Z" fill="#0c2435" stroke="#0c2435"></path><path d="M1262 2600L1486.3 2600L1518.3 2407Z" fill="#277297" stroke="#277297"></path><path d="M609 178L405.7 179L403.7 360Z" fill="#19435d" stroke="#19435d"></path><path d="M1920 1025L1920 802L1727.7 838Z" fill="#297ea6" stroke="#297ea6"></path><path d="M0 2376L0 2600L215.3 2439Z" fill="#0c2435" stroke="#0c2435"></path><path d="M1920 2393L1710.7 2170L1671.7 2393Z" fill="#15384f" stroke="#15384f"></path><path d="M1920 2393L1920 2192L1710.7 2170Z" fill="#112e42" stroke="#112e42"></path><path d="M405.7 179L247.3 198L403.7 360Z" fill="#246688" stroke="#246688"></path><path d="M1509.3 414L1302 204L1259 398Z" fill="#15384f" stroke="#15384f"></path><path d="M1505.3 224L1302 204L1509.3 414Z" fill="#277297" stroke="#277297"></path><path d="M1920 436L1706.7 437L1730.7 566Z" fill="#1d4e6b" stroke="#1d4e6b"></path><path d="M1730.7 566L1706.7 437L1509.3 414Z" fill="#1d4e6b" stroke="#1d4e6b"></path><path d="M1689.7 222L1505.3 224L1509.3 414Z" fill="#246688" stroke="#246688"></path><path d="M1920 802L1920 592L1730.7 566Z" fill="#0c2435" stroke="#0c2435"></path><path d="M1706.7 437L1689.7 222L1509.3 414Z" fill="#00101c" stroke="#00101c"></path><path d="M1486.3 2600L1703.7 2600L1518.3 2407Z" fill="#205a7a" stroke="#205a7a"></path><path d="M247.3 198L0 211L186.3 425Z" fill="#112e42" stroke="#112e42"></path><path d="M0 0L0 211L247.3 198Z" fill="#277297" stroke="#277297"></path><path d="M1090.7 0L1068.7 183L1302 204Z" fill="#297ea6" stroke="#297ea6"></path><path d="M1090.7 0L866.3 181L1068.7 183Z" fill="#0c2435" stroke="#0c2435"></path><path d="M1090.7 0L829.3 0L866.3 181Z" fill="#0c2435" stroke="#0c2435"></path><path d="M609 178L417.7 0L405.7 179Z" fill="#246688" stroke="#246688"></path><path d="M405.7 179L240.3 0L247.3 198Z" fill="#00101c" stroke="#00101c"></path><path d="M829.3 0L643 0L609 178Z" fill="#19435d" stroke="#19435d"></path><path d="M1703.7 2600L1920 2393L1671.7 2393Z" fill="#205a7a" stroke="#205a7a"></path><path d="M1317 0L1090.7 0L1302 204Z" fill="#297ea6" stroke="#297ea6"></path><path d="M643 0L417.7 0L609 178Z" fill="#1d4e6b" stroke="#1d4e6b"></path><path d="M1920 592L1920 436L1730.7 566Z" fill="#297ea6" stroke="#297ea6"></path><path d="M1505.3 224L1317 0L1302 204Z" fill="#205a7a" stroke="#205a7a"></path><path d="M417.7 0L240.3 0L405.7 179Z" fill="#205a7a" stroke="#205a7a"></path><path d="M1920 436L1689.7 222L1706.7 437Z" fill="#112e42" stroke="#112e42"></path><path d="M1513.3 0L1317 0L1505.3 224Z" fill="#246688" stroke="#246688"></path><path d="M1703.7 2600L1920 2600L1920 2393Z" fill="#246688" stroke="#246688"></path><path d="M240.3 0L0 0L247.3 198Z" fill="#1d4e6b" stroke="#1d4e6b"></path><path d="M1710.7 0L1513.3 0L1689.7 222Z" fill="#246688" stroke="#246688"></path><path d="M1689.7 222L1513.3 0L1505.3 224Z" fill="#297ea6" stroke="#297ea6"></path><path d="M1920 436L1920 189L1689.7 222Z" fill="#15384f" stroke="#15384f"></path><path d="M1920 189L1710.7 0L1689.7 222Z" fill="#205a7a" stroke="#205a7a"></path><path d="M1920 189L1920 0L1710.7 0Z" fill="#081a28" stroke="#081a28"></path></g></svg>