<svg id="visual" viewBox="0 0 960 540" width="960" height="540" xmlns="http://www.w3.org/2000/svg" xmlns:xlink="http://www.w3.org/1999/xlink" version="1.1"><rect x="0" y="0" width="960" height="540" fill="#000102"></rect><defs><linearGradient id="grad1_0" x1="43.8%" y1="0%" x2="100%" y2="100%"><stop offset="14.444444444444446%" stop-color="#000102" stop-opacity="1"></stop><stop offset="85.55555555555554%" stop-color="#000102" stop-opacity="1"></stop></linearGradient></defs><defs><linearGradient id="grad2_0" x1="0%" y1="0%" x2="56.3%" y2="100%"><stop offset="14.444444444444446%" stop-color="#000102" stop-opacity="1"></stop><stop offset="85.55555555555554%" stop-color="#000102" stop-opacity="1"></stop></linearGradient></defs><g transform="translate(960, 0)"><path d="M0 297C-37.1 285.3 -74.3 273.5 -106.4 256.8C-138.5 240.2 -165.5 218.6 -195.2 195.2C-224.8 171.7 -257 146.5 -274.4 113.7C-291.8 80.8 -294.4 40.4 -297 0L0 0Z" fill="#022141"></path></g><g transform="translate(0, 540)"><path d="M0 -297C29.9 -271.6 59.8 -246.2 97.6 -235.6C135.3 -225 181 -229.3 210 -210C239.1 -190.8 251.6 -148 263.3 -109.1C275 -70.1 286 -35.1 297 0L0 0Z" fill="#022141"></path></g></svg>